<?xml version="1.0" encoding="utf-8"?>
<!-- Generator: Adobe Illustrator 25.3.1, SVG Export Plug-In . SVG Version: 6.00 Build 0)  -->
<svg version="1.1" id="Livello_1" xmlns="http://www.w3.org/2000/svg" xmlns:xlink="http://www.w3.org/1999/xlink" x="0px" y="0px"
	 viewBox="0 0 30 29.3" style="enable-background:new 0 0 30 29.3;" xml:space="preserve">
<style type="text/css">
	.st0{fill:#FFFFFF;}
</style>
<path d="M13.9,28c0.2,0.2,0.5,0.3,0.8,0.3c0.3,0,0.6-0.1,0.8-0.3l1.4-1.4c0.4-0.4,0.4-1.1,0-1.5c0,0,0,0,0,0l-8.7-8.3H28
	c0.6,0,1-0.5,1-1.1v-2c0-0.6-0.4-1.1-1-1.1H8.1l8.7-8.3c0.2-0.2,0.3-0.5,0.3-0.8c0-0.3-0.1-0.6-0.3-0.8l-1.4-1.4
	C15.2,1.1,14.9,1,14.7,1l0,0c-0.3,0-0.6,0.1-0.8,0.3L1.3,13.9C1.1,14.1,1,14.4,1,14.6c0,0.3,0.1,0.6,0.3,0.8L13.9,28z"/>
<path class="st0" d="M0.6,16.1l12.6,12.6c0.4,0.4,0.9,0.6,1.4,0.6l0,0c0.5,0,1.1-0.2,1.4-0.6l1.4-1.4c0.4-0.4,0.6-0.9,0.6-1.5
	c0-0.5-0.2-1.1-0.6-1.5l-6.9-6.6H28c1.1,0,2-0.9,2-2v-2.1c0-1.1-0.9-2-2-2H10.6L17.5,5c0.4-0.4,0.6-0.9,0.6-1.5
	c0-0.5-0.2-1.1-0.6-1.5l-1.4-1.5C15.7,0.2,15.2,0,14.7,0l0,0c-0.5,0-1.1,0.2-1.5,0.6L0.6,13.2C-0.2,14-0.2,15.2,0.6,16.1
	C0.6,16,0.6,16.1,0.6,16.1z M1,13.5L13.6,0.9c0.6-0.6,1.6-0.6,2.2,0c0,0,0,0,0,0l1.4,1.4c0.6,0.6,0.6,1.6,0,2.2c0,0,0,0,0,0L9.4,12
	H28c0.9,0,1.5,0.7,1.5,1.6c0,0,0,0,0,0v2c0,0.9-0.7,1.6-1.5,1.6c0,0,0,0,0,0H9.4l7.8,7.4c0.6,0.6,0.6,1.6,0,2.2c0,0,0,0,0,0
	l-1.4,1.4c-0.6,0.6-1.6,0.6-2.2,0c0,0,0,0,0,0L1,15.7C0.3,15.1,0.3,14.1,1,13.5C0.9,13.5,0.9,13.5,1,13.5z"/>
<path class="st0" d="M1,15.7l12.6,12.6c0.6,0.6,1.6,0.6,2.2,0c0,0,0,0,0,0l1.4-1.4c0.6-0.6,0.6-1.6,0-2.2c0,0,0,0,0,0l-7.8-7.4H28
	c0.9,0,1.5-0.7,1.5-1.6c0,0,0,0,0,0v-2c0-0.9-0.7-1.6-1.5-1.6c0,0,0,0,0,0H9.4l7.8-7.4c0.6-0.6,0.6-1.6,0-2.2c0,0,0,0,0,0L15.7,1
	c-0.6-0.6-1.6-0.6-2.2,0c0,0,0,0,0,0L1,13.5C0.3,14.1,0.3,15.1,1,15.7C0.9,15.7,0.9,15.7,1,15.7z M1.3,13.9L13.9,1.3
	C14.1,1.1,14.4,1,14.7,1l0,0c0.3,0,0.6,0.1,0.8,0.3l1.4,1.4c0.2,0.2,0.3,0.5,0.3,0.8c0,0.3-0.1,0.6-0.3,0.8l-8.7,8.3H28
	c0.6,0,1,0.5,1,1.1v2c0,0.6-0.4,1.1-1,1.1H8.1l8.7,8.3c0.4,0.4,0.4,1.1,0,1.5c0,0,0,0,0,0L15.4,28c-0.2,0.2-0.5,0.3-0.8,0.3
	c-0.3,0-0.6-0.1-0.8-0.3L1.3,15.4C1.1,15.2,1,14.9,1,14.6C1,14.4,1.1,14.1,1.3,13.9z"/>
</svg>
