<svg viewBox="0 0 30 29.26" xmlns="http://www.w3.org/2000/svg"><g transform="translate(0 -.37)"><path d="m16.12 1.65a1.06 1.06 0 0 0 -.75-.31 1 1 0 0 0 -.76.31l-1.44 1.44a1.05 1.05 0 0 0 0 1.53l8.68 8.27h-19.85a1.07 1.07 0 0 0 -1 1.11v2a1.07 1.07 0 0 0 1 1.11h19.87l-8.68 8.27a1 1 0 0 0 -.33.76 1.09 1.09 0 0 0 .31.77l1.44 1.44a1.06 1.06 0 0 0 .75.31 1.07 1.07 0 0 0 .76-.31l12.6-12.6a1 1 0 0 0 .28-.75 1.08 1.08 0 0 0 -.31-.76z"/><g fill="#fff"><path d="m29.4 13.56-12.59-12.56a2 2 0 0 0 -1.44-.6 2 2 0 0 0 -1.45.6l-1.43 1.4a2 2 0 0 0 -.6 1.47 2 2 0 0 0 .63 1.45l6.93 6.6h-17.45a2 2 0 0 0 -2 2v2.08a2 2 0 0 0 2 2h17.45l-6.93 6.6a2 2 0 0 0 -.63 1.45 2 2 0 0 0 .6 1.46l1.43 1.49a2 2 0 0 0 1.44.6 2 2 0 0 0 1.45-.6l12.59-12.56a2 2 0 0 0 0-2.88zm-.34 2.54-12.6 12.59a1.54 1.54 0 0 1 -2.19 0l-1.44-1.44a1.56 1.56 0 0 1 0-2.22l7.81-7.44h-18.64a1.55 1.55 0 0 1 -1.52-1.59v-2a1.55 1.55 0 0 1 1.52-1.59h18.66l-7.81-7.41a1.55 1.55 0 0 1 0-2.22l1.44-1.44a1.54 1.54 0 0 1 2.19 0l12.58 12.56a1.55 1.55 0 0 1 0 2.2z"/><path d="m29.06 13.9-12.6-12.59a1.54 1.54 0 0 0 -2.19 0l-1.44 1.44a1.55 1.55 0 0 0 0 2.22l7.81 7.44h-18.64a1.55 1.55 0 0 0 -1.52 1.59v2a1.55 1.55 0 0 0 1.52 1.59h18.66l-7.81 7.41a1.56 1.56 0 0 0 0 2.22l1.44 1.44a1.54 1.54 0 0 0 2.19 0l12.58-12.56a1.55 1.55 0 0 0 0-2.2zm-.34 1.85-12.6 12.6a1.07 1.07 0 0 1 -.76.31 1.06 1.06 0 0 1 -.75-.31l-1.44-1.44a1.09 1.09 0 0 1 -.31-.77 1 1 0 0 1 .33-.76l8.68-8.27h-19.87a1.07 1.07 0 0 1 -1-1.11v-2a1.07 1.07 0 0 1 1-1.11h19.87l-8.68-8.27a1.05 1.05 0 0 1 0-1.53l1.44-1.44a1 1 0 0 1 .76-.31 1.06 1.06 0 0 1 .75.31l12.6 12.59a1.08 1.08 0 0 1 .26.76 1 1 0 0 1 -.28.75z"/></g></g></svg>