<svg enable-background="new 0 0 30 29.3" viewBox="0 0 30 29.3" xmlns="http://www.w3.org/2000/svg"><path d="m13.9 28c.2.2.5.3.8.3s.6-.1.8-.3l1.4-1.4c.4-.4.4-1.1 0-1.5l-8.7-8.3h19.8c.6 0 1-.5 1-1.1v-2c0-.6-.4-1.1-1-1.1h-19.9l8.7-8.3c.2-.2.3-.5.3-.8s-.1-.6-.3-.8l-1.4-1.4c-.2-.2-.5-.3-.7-.3-.3 0-.6.1-.8.3l-12.6 12.6c-.2.2-.3.5-.3.7 0 .3.1.6.3.8z"/><g fill="#fff"><path d="m.6 16.1 12.6 12.6c.4.4.9.6 1.4.6.5 0 1.1-.2 1.4-.6l1.4-1.4c.4-.4.6-.9.6-1.5 0-.5-.2-1.1-.6-1.5l-6.9-6.6h17.5c1.1 0 2-.9 2-2v-2.1c0-1.1-.9-2-2-2h-17.4l6.9-6.6c.4-.4.6-.9.6-1.5 0-.5-.2-1.1-.6-1.5l-1.4-1.5c-.4-.3-.9-.5-1.4-.5-.5 0-1.1.2-1.5.6l-12.6 12.6c-.8.8-.8 2 0 2.9 0-.1 0 0 0 0zm.4-2.6 12.6-12.6c.6-.6 1.6-.6 2.2 0l1.4 1.4c.6.6.6 1.6 0 2.2l-7.8 7.5h18.6c.9 0 1.5.7 1.5 1.6v2c0 .9-.7 1.6-1.5 1.6h-18.6l7.8 7.4c.6.6.6 1.6 0 2.2l-1.4 1.4c-.6.6-1.6.6-2.2 0l-12.6-12.5c-.7-.6-.7-1.6 0-2.2-.1 0-.1 0 0 0z"/><path d="m1 15.7 12.6 12.6c.6.6 1.6.6 2.2 0l1.4-1.4c.6-.6.6-1.6 0-2.2l-7.8-7.4h18.6c.9 0 1.5-.7 1.5-1.6v-2c0-.9-.7-1.6-1.5-1.6h-18.6l7.8-7.4c.6-.6.6-1.6 0-2.2l-1.5-1.5c-.6-.6-1.6-.6-2.2 0l-12.5 12.5c-.7.6-.7 1.6 0 2.2-.1 0-.1 0 0 0zm.3-1.8 12.6-12.6c.2-.2.5-.3.8-.3.3 0 .6.1.8.3l1.4 1.4c.2.2.3.5.3.8s-.1.6-.3.8l-8.7 8.3h19.8c.6 0 1 .5 1 1.1v2c0 .6-.4 1.1-1 1.1h-19.9l8.7 8.3c.4.4.4 1.1 0 1.5l-1.4 1.4c-.2.2-.5.3-.8.3s-.6-.1-.8-.3l-12.5-12.6c-.2-.2-.3-.5-.3-.8 0-.2.1-.5.3-.7z"/></g></svg>