<svg height="47.359" viewBox="0 0 30 47.359" width="30" xmlns="http://www.w3.org/2000/svg" xmlns:xlink="http://www.w3.org/1999/xlink"><clipPath id="a"><path d="m0 0h30v47.359h-30z"/></clipPath><g clip-path="url(#a)"><path d="m26.377 23.045-20.9-20.9a2.377 2.377 0 0 0 -3.291 0 2.318 2.318 0 0 0 0 3.288l17.61 17.608-17.6 17.6a2.352 2.352 0 0 0 0 3.3 2.412 2.412 0 0 0 3.278 0z" fill="#1d1d1b" transform="translate(.622 .617)"/><path d="m7.6 1.263a4.547 4.547 0 0 0 -6.291 0 4.437 4.437 0 0 0 0 6.291l16.104 16.107-16.1 16.1a4.478 4.478 0 0 0 0 6.3 4.458 4.458 0 0 0 6.285 0l22.402-22.4zm-4.781 43.3a2.349 2.349 0 0 1 0-3.3l17.6-17.6-17.613-17.612a2.316 2.316 0 0 1 0-3.287 2.375 2.375 0 0 1 3.29 0l20.904 20.897-20.906 20.905a2.41 2.41 0 0 1 -3.277 0" fill="#fff"/></g></svg>