<svg enable-background="new 0 0 37.4 37.5" viewBox="0 0 37.4 37.5" xmlns="http://www.w3.org/2000/svg"><g stroke="#303030"><ellipse cx="18.7" cy="18.8" fill="#fff" rx="17.3" ry="17.3" stroke-miterlimit="10" stroke-width="2"/><g fill="none" stroke-linecap="round" stroke-linejoin="round"><path d="m13.7 22.9v-2.8c0-.8.7-1.6 1.6-1.6l.3 3.5v-11c0-.8.7-1.6 1.6-1.6.8 0 1.6.7 1.6 1.6v7.6c0-.8.7-1.6 1.6-1.6s1.6.7 1.6 1.6c0-.8.7-1.6 1.6-1.6.8 0 1.6.7 1.6 1.6 0-.8.7-1.6 1.6-1.6.8 0 1.6.7 1.6 1.6v6.2c0 3.5-2.9 6.3-6.3 6.3" stroke-width="1.45"/><path d="m21.9 20.3v-1.7" stroke-width="1.45"/><path d="m18.7 20.3v-1.9" stroke-width="1.45"/><path d="m25 20.3v-1.7" stroke-width="1.45"/><path d="m21.9 31.2c-4.5 0-8.2-3.7-8.2-8.2" stroke-width="1.45"/><path d="m24.5 10.8h-5.8" stroke-width="1.3"/><path d="m22 8.7 3 2.1-3 1.9" stroke-width="1.3"/><path d="m9.2 10.8h6.3" stroke-width="1.3"/><path d="m11.7 12.7-3-1.9 3-2.1" stroke-width="1.3"/></g></g></svg>