<?xml version="1.0" encoding="utf-8"?>
<!-- Generator: Adobe Illustrator 23.1.0, SVG Export Plug-In . SVG Version: 6.00 Build 0)  -->
<svg version="1.1" id="Livello_1" xmlns="http://www.w3.org/2000/svg" xmlns:xlink="http://www.w3.org/1999/xlink" x="0px" y="0px"
	 viewBox="0 0 37.4 37.5" style="enable-background:new 0 0 37.4 37.5;" xml:space="preserve">
<style type="text/css">
	.st0{fill:#FFFFFF;stroke:#303030;stroke-width:2;stroke-miterlimit:10;enable-background:new    ;}
	.st1{fill:none;stroke:#303030;stroke-width:1.45;stroke-linecap:round;stroke-linejoin:round;}
	.st2{fill:none;stroke:#303030;stroke-width:1.3;stroke-linecap:round;stroke-linejoin:round;}
</style>
<title>Swipe</title>
<ellipse class="st0" cx="18.7" cy="18.8" rx="17.3" ry="17.3"/>
<path class="st1" d="M13.7,22.9v-2.8c0-0.8,0.7-1.6,1.6-1.6l0,0l0.3,3.5V11c0-0.8,0.7-1.6,1.6-1.6c0.8,0,1.6,0.7,1.6,1.6v7.6
	c0-0.8,0.7-1.6,1.6-1.6s1.6,0.7,1.6,1.6c0-0.8,0.7-1.6,1.6-1.6c0.8,0,1.6,0.7,1.6,1.6c0-0.8,0.7-1.6,1.6-1.6c0.8,0,1.6,0.7,1.6,1.6
	v6.2c0,3.5-2.9,6.3-6.3,6.3l0,0l0,0"/>
<line class="st1" x1="21.9" y1="20.3" x2="21.9" y2="18.6"/>
<line class="st1" x1="18.7" y1="20.3" x2="18.7" y2="18.4"/>
<line class="st1" x1="25" y1="20.3" x2="25" y2="18.6"/>
<path class="st1" d="M21.9,31.2c-4.5,0-8.2-3.7-8.2-8.2l0,0"/>
<line class="st2" x1="24.5" y1="10.8" x2="18.7" y2="10.8"/>
<polyline class="st2" points="22,8.7 25,10.8 22,12.7 "/>
<line class="st2" x1="9.2" y1="10.8" x2="15.5" y2="10.8"/>
<polyline class="st2" points="11.7,12.7 8.7,10.8 11.7,8.7 "/>
</svg>
